<svg version="1.0" xmlns="http://www.w3.org/2000/svg"
 width="900.000000pt" height="141.000000pt" viewBox="0 0 900.000000 141.000000"
 preserveAspectRatio="xMidYMid meet">
<metadata>
Created by potrace 1.10, written by Peter Selinger 2001-2011
</metadata>
<g transform="translate(0.000000,141.000000) scale(0.100000,-0.100000)"
fill="#14213d" stroke="none">
<path d="M387 1339 c-83 -9 -120 -27 -156 -78 -24 -33 -28 -60 -41 -249 -11
-172 -23 -198 -101 -231 l-50 -22 3 -72 3 -72 43 -14 c31 -9 50 -24 68 -51 23
-34 26 -53 34 -191 12 -195 16 -217 47 -257 36 -48 99 -72 189 -72 l74 0 0 63
c0 34 -4 67 -8 73 -4 6 -28 14 -55 18 -72 11 -80 29 -88 208 -8 168 -17 198
-81 264 l-39 41 35 27 c63 48 77 92 83 254 5 124 9 147 27 175 18 27 29 33 71
37 l50 5 3 54 c4 65 -4 101 -21 100 -6 -1 -47 -5 -90 -10z"/>
<path d="M4925 1336 c-310 -75 -456 -423 -302 -716 35 -68 127 -157 193 -188
27 -13 56 -27 66 -32 9 -5 54 -14 100 -21 94 -13 161 -3 237 34 66 33 62 44
-16 49 -127 9 -226 77 -277 191 -38 84 -46 119 -46 208 0 120 36 228 100 297
41 45 130 90 201 101 83 14 92 25 38 50 -94 43 -193 52 -294 27z m-146 -272
c-11 -13 -14 -59 -14 -216 0 -169 -2 -198 -14 -196 -8 2 -26 30 -39 63 -21 53
-24 72 -20 167 2 67 8 112 16 120 6 6 12 20 12 30 0 23 51 71 64 58 6 -6 4
-16 -5 -26z"/>
<path d="M8486 1342 c-2 -4 -6 -36 -7 -71 -3 -70 5 -81 57 -81 58 0 70 -24 77
-151 10 -187 41 -289 97 -319 26 -14 25 -32 -1 -56 -63 -56 -83 -126 -95 -327
-4 -59 -12 -114 -19 -123 -6 -9 -34 -22 -61 -29 l-49 -12 -5 -67 c-3 -37 -3
-70 -1 -72 2 -2 36 -4 75 -3 91 0 149 27 189 87 27 41 29 48 34 195 7 212 26
262 108 289 l40 13 3 73 3 72 -47 21 c-81 34 -103 86 -105 239 0 58 -4 128 -8
157 -12 88 -69 148 -149 158 -102 12 -132 14 -136 7z"/>
<path d="M660 1328 c-5 -119 -3 -998 3 -999 9 0 144 0 156 0 6 1 10 130 10
312 0 180 4 316 9 321 12 12 36 -25 266 -404 55 -90 111 -178 124 -196 l24
-32 98 0 98 0 -1 498 -2 497 -87 3 -88 3 0 -325 0 -326 -22 11 c-14 6 -59 71
-111 157 -113 189 -110 184 -122 198 -5 6 -46 73 -90 147 l-80 137 -92 0 c-51
0 -93 -1 -93 -2z"/>
<path d="M1678 1254 c-2 -41 0 -78 4 -82 9 -9 168 1 168 11 0 4 0 39 0 77 l0
70 -84 0 -84 0 -4 -76z"/>
<path d="M2940 831 c0 -275 3 -501 8 -503 4 -2 44 -2 89 0 l82 3 1 217 c0 119
4 234 9 254 31 136 204 176 269 62 13 -24 17 -71 19 -278 2 -138 5 -252 8
-254 3 -3 106 -5 156 -3 7 1 10 89 7 293 l-3 293 -26 40 c-52 79 -103 105
-204 105 -77 0 -109 -11 -182 -63 -24 -17 -46 -27 -50 -23 -4 3 -7 84 -7 179
l-1 172 -87 3 -88 3 0 -500z"/>
<path d="M5986 1298 c-8 -18 -25 -60 -37 -93 -13 -33 -27 -64 -31 -69 -4 -6
-8 -17 -8 -25 0 -9 -7 -29 -15 -45 -8 -15 -15 -33 -15 -38 0 -6 -7 -24 -15
-41 -8 -18 -30 -75 -50 -127 -19 -52 -39 -104 -44 -115 -9 -21 -23 -57 -62
-160 -13 -33 -27 -64 -31 -70 -4 -5 -8 -15 -8 -23 0 -14 -18 -59 -47 -120 -9
-17 -14 -35 -10 -38 3 -3 47 -6 98 -6 101 0 102 1 120 67 6 22 14 45 19 50 4
6 11 24 14 40 4 17 15 40 26 53 18 21 23 22 209 22 178 0 192 -1 211 -20 11
-11 20 -29 20 -39 0 -11 4 -22 9 -26 5 -3 12 -19 16 -36 4 -17 13 -42 21 -57
8 -15 14 -33 14 -39 0 -10 28 -13 105 -13 58 0 105 2 105 5 0 3 -4 13 -9 23
-20 38 -41 91 -41 104 0 8 -4 18 -8 23 -4 6 -18 37 -31 70 -12 33 -27 69 -31
80 -5 11 -19 45 -30 75 -12 30 -26 64 -30 75 -5 11 -19 45 -30 75 -12 30 -26
64 -30 75 -5 11 -19 45 -30 75 -12 30 -26 64 -30 75 -5 11 -19 45 -31 75 -12
30 -28 69 -35 87 -8 17 -14 37 -14 45 0 31 -24 38 -122 38 l-98 0 -14 -32z
m142 -258 c12 -28 22 -57 22 -65 0 -7 4 -16 9 -20 5 -3 12 -19 16 -36 4 -17
13 -42 21 -57 8 -15 14 -33 14 -40 0 -7 7 -26 15 -43 12 -22 13 -34 5 -49 -10
-19 -19 -20 -138 -18 -115 3 -127 5 -130 22 -2 10 1 28 6 40 5 11 24 62 42
111 17 50 38 106 45 125 8 19 17 45 20 58 10 36 30 26 53 -28z"/>
<path d="M3912 1246 c-40 -24 -78 -48 -84 -54 -7 -7 -11 -32 -9 -57 2 -54 -12
-85 -42 -85 -41 0 -48 -13 -45 -76 3 -57 4 -59 33 -62 55 -7 55 -7 55 -236 0
-249 9 -297 64 -334 20 -14 56 -25 88 -29 52 -5 163 11 172 25 2 4 -1 34 -8
67 l-12 60 -45 -3 c-77 -6 -79 -1 -79 223 0 106 3 200 6 209 5 12 20 16 59 16
59 0 65 6 65 70 0 64 -6 70 -65 70 -39 0 -54 4 -59 16 -3 9 -6 63 -6 120 0 57
-3 104 -7 104 -5 0 -41 -20 -81 -44z"/>
<path d="M7365 1236 l-70 -42 -3 -50 c-4 -80 -10 -94 -37 -94 -13 0 -36 -5
-51 -10 -20 -8 -32 -7 -50 5 -15 9 -47 15 -87 15 -64 0 -64 0 -115 -51 -47
-47 -51 -49 -61 -31 -6 11 -8 22 -5 25 3 3 3 15 -1 26 -6 19 -14 21 -74 21
-39 0 -72 -5 -79 -12 -9 -9 -12 -103 -12 -360 l0 -349 92 3 92 3 -2 110 c-3
164 13 354 33 393 27 53 56 66 130 59 72 -7 77 -4 89 66 10 53 39 48 46 -8 5
-37 7 -40 40 -43 19 -2 38 -9 42 -15 4 -7 8 -109 8 -227 0 -285 14 -324 123
-351 45 -11 146 -7 183 8 15 6 20 109 6 128 -4 6 -29 10 -57 10 -42 0 -51 3
-62 25 -17 34 -18 391 -1 408 7 7 36 12 65 12 l53 0 0 70 0 70 -53 0 c-29 0
-58 5 -65 12 -8 8 -12 48 -12 115 0 123 -1 123 -105 59z"/>
<path d="M2200 1034 c-63 -35 -105 -78 -137 -143 -26 -53 -27 -63 -28 -197 0
-90 4 -146 11 -155 6 -8 15 -25 19 -39 8 -25 57 -94 85 -118 62 -53 201 -69
277 -32 22 10 53 33 69 49 41 44 54 27 54 -68 0 -115 -35 -157 -137 -167 -77
-7 -113 5 -141 47 -23 34 -25 34 -115 41 -51 4 -96 3 -100 -1 -18 -18 16 -105
57 -145 57 -57 125 -76 267 -76 203 0 302 60 333 201 8 37 10 795 2 808 -10
16 -133 14 -143 -1 -4 -7 -8 -26 -8 -42 0 -41 -18 -42 -62 -3 -61 54 -97 67
-182 66 -61 0 -85 -5 -121 -25z m233 -113 c31 -12 76 -53 95 -88 9 -17 17 -65
20 -119 5 -99 -12 -157 -60 -200 -69 -64 -169 -61 -226 6 -51 59 -68 193 -36
290 30 93 123 143 207 111z"/>
<path d="M7865 1044 c-89 -31 -156 -119 -155 -202 1 -54 39 -122 84 -153 44
-29 126 -57 295 -99 46 -12 91 -49 91 -74 0 -9 -13 -30 -29 -48 -27 -30 -34
-33 -105 -36 -69 -4 -80 -2 -116 22 -22 14 -46 39 -54 54 -14 28 -16 28 -73
21 -32 -4 -71 -8 -86 -8 -25 -1 -27 -4 -22 -23 41 -140 231 -217 436 -178 145
27 219 106 219 232 0 122 -57 167 -285 227 -121 31 -157 46 -176 69 -17 22
-18 28 -6 46 32 48 134 69 199 42 20 -9 48 -31 63 -50 24 -32 28 -33 63 -25
20 5 52 9 70 9 42 0 50 21 26 67 -25 47 -77 88 -135 107 -62 21 -247 20 -304
0z"/>
<path d="M1678 694 c-2 -196 1 -358 5 -361 11 -7 153 -6 164 0 4 3 6 164 3
359 l-5 353 -82 3 -83 3 -2 -357z"/>
</g>
</svg>
